<svg xmlns="http://www.w3.org/2000/svg" width="98" height="96" viewBox="0 0 98 96" fill="none"><path fill="#9bf6d5" d="M48.854 0C21.876 0 0 22 0 49.2c0 21.75 13.993 40.2 33.406 46.74 2.444.48 3.337-1.08 3.337-2.4 0-1.2-.044-5.28-.066-9.6-13.584 3-16.454-5.82-16.454-5.82-2.224-5.82-5.445-7.38-5.445-7.38-4.45-3.12.334-3.06.334-3.06 4.934.36 7.522 5.22 7.522 5.22 4.377 7.56 11.49 5.4 14.29 4.14.444-3.24 1.71-5.4 3.111-6.64-10.844-1.2-22.244-5.52-22.244-24.6 0-5.44 1.888-9.9 5-13.38-.5-1.2-2.178-6.06.466-12.6 0 0 4.111-1.32 13.467 5.1 3.911-1.1 8.1-1.68 12.255-1.7 4.155.02 8.344.6 12.255 1.68 9.356-6.42 13.467-5.1 13.467-5.1 2.644 6.54.966 11.4.466 12.6 3.111 3.48 5 7.94 5 13.38 0 19.14-11.422 23.38-22.31 24.56 1.756 1.56 3.333 4.62 3.333 9.42 0 6.8-.066 12.24-.066 13.9 0 1.32.889 2.88 3.356 2.38C84.043 89.36 98 70.94 98 49.2 98 22 76.056 0 48.854 0Z"/></svg>


